# xmcd
#
# Track frame offsets: 
#        150
#        12712
#        26805
#        38860
#        46202
#        65940
#        72827
#        85815
#        100497
#        116682
#        130327
#        150980
#        161147
#
# Disc length: 2414 seconds
#
# Revision: 5
# Processed by: cddbd v1.5.2PL0 Copyright (c) Steve Scherf et al.
# Submitted via: ExactAudioCopy v0.99pb4
#
DISCID=b6096c0d
DTITLE=Pavel Dobes - Zatisi s cervy
DYEAR=1990
DGENRE=Folk
TTITLE0=Optimisticka
TTITLE1=O Lese
TTITLE2=Blazek
TTITLE3=Vichrice
TTITLE4=Puerto Montt
TTITLE5=Zatisi s Cervy
TTITLE6=Jihocesky Devcata
TTITLE7=Ach, Ta Rana
TTITLE8=Oko ztratis ve chvili kdyz pracujes bez bryli
TTITLE9=Vendelin Prouza
TTITLE10=Hluchonema zem
TTITLE11=Pojd se mnou, Marie
TTITLE12=Kominik
EXTD=
EXTT0=
EXTT1=
EXTT2=
EXTT3=
EXTT4=
EXTT5=
EXTT6=
EXTT7=
EXTT8=
EXTT9=
EXTT10=
EXTT11=
EXTT12=
PLAYORDER=
